<?xml version="1.0" encoding="UTF-8"?>
<svg version="1.1" xmlns="http://www.w3.org/2000/svg" width="225" height="225">
<path d="M0 0 C1.27444473 -0.00671722 2.54888947 -0.01343445 3.86195374 -0.02035522 C7.3354772 -0.03790978 10.80890191 -0.04270624 14.28246546 -0.0439868 C16.46077002 -0.04541549 18.63905005 -0.04969868 20.81734848 -0.05498123 C28.44026003 -0.07344992 36.06310197 -0.08165623 43.68603516 -0.08007812 C50.75300369 -0.07887908 57.81966567 -0.0999428 64.88655674 -0.13156545 C70.98460112 -0.15786454 77.08254625 -0.16843969 83.18064678 -0.16716731 C86.80900879 -0.16666146 90.43709828 -0.17213211 94.06540298 -0.19352341 C115.50136432 -0.31106259 135.55972655 -0.19330587 152.22998047 15.31787109 C163.26682383 27.56755439 166.3100021 43.36093575 166.29785156 59.28320312 C166.30456879 60.55764786 166.31128601 61.83209259 166.31820679 63.14515686 C166.33576134 66.61868032 166.3405578 70.09210504 166.34183836 73.56566858 C166.34326705 75.74397314 166.34755024 77.92225318 166.35283279 80.10055161 C166.37130148 87.72346316 166.37950779 95.3463051 166.37792969 102.96923828 C166.37673064 110.03620682 166.39779437 117.10286879 166.42941701 124.16975987 C166.4557161 130.26780424 166.46629125 136.36574937 166.46501887 142.4638499 C166.46451302 146.09221192 166.46998367 149.7203014 166.49137497 153.34860611 C166.60891415 174.78456744 166.49115743 194.84292967 150.97998047 211.51318359 C138.73029718 222.55002696 122.93691582 225.59320523 107.01464844 225.58105469 C105.7402037 225.58777191 104.46575897 225.59448914 103.1526947 225.60140991 C99.67917124 225.61896447 96.20574653 225.62376093 92.73218298 225.62504148 C90.55387842 225.62647018 88.37559839 225.63075337 86.19729996 225.63603592 C78.5743884 225.65450461 70.95154646 225.66271092 63.32861328 225.66113281 C56.26164475 225.65993377 49.19498277 225.68099749 42.12809169 225.71262014 C36.03004732 225.73891923 29.93210219 225.74949437 23.83400166 225.74822199 C20.20563965 225.74771614 16.57755016 225.75318679 12.94924545 225.77457809 C-8.48671588 225.89211728 -28.54507811 225.77436056 -45.21533203 210.26318359 C-56.25217539 198.0135003 -59.29535366 182.22011894 -59.28320312 166.29785156 C-59.28992035 165.02340683 -59.29663757 163.7489621 -59.30355835 162.43589783 C-59.32111291 158.96237436 -59.32590937 155.48894965 -59.32718992 152.0153861 C-59.32861862 149.83708154 -59.3329018 147.65880151 -59.33818436 145.48050308 C-59.35665304 137.85759153 -59.36485935 130.23474959 -59.36328125 122.61181641 C-59.3620822 115.54484787 -59.38314593 108.47818589 -59.41476858 101.41129482 C-59.44106767 95.31325044 -59.45164281 89.21530531 -59.45037043 83.11720479 C-59.44986458 79.48884277 -59.45533523 75.86075328 -59.47672653 72.23244858 C-59.59426572 50.79648725 -59.47650899 30.73812502 -43.96533203 14.06787109 C-31.71564874 3.03102773 -15.92226738 -0.01215054 0 0 Z " fill="#7846FF" transform="translate(58.99267578125,-0.29052734375)"/>
<path d="M0 0 C7.48656308 7.35513825 8.8959178 15.58056882 9.04492188 25.69140625 C9.05130804 27.14843529 9.0571611 28.60546675 9.0625 30.0625 C9.08568952 31.55862949 9.11106397 33.05472677 9.13867188 34.55078125 C9.2009521 38.17966317 9.23373747 41.80808564 9.25 45.4375 C12.22 45.4375 15.19 45.4375 18.25 45.4375 C18.25410889 44.52049316 18.25821777 43.60348633 18.26245117 42.65869141 C18.28964889 39.2100206 18.33895695 35.76306086 18.40258789 32.31494141 C18.42558344 30.83132652 18.44011973 29.34755266 18.44555664 27.86376953 C18.4888857 17.97807752 19.00382048 9.24943663 25.95922852 1.54394531 C30.95636886 -3.26828486 36.79539158 -5.62842546 43.6875 -6 C50.02339923 -5.75925771 55.1461543 -3.2838283 60 0.6875 C65.48511861 7.39153386 68.01777054 12.18652862 67.87890625 20.94921875 C67.88131821 21.8393013 67.88373016 22.72938385 67.88621521 23.6464386 C67.88524073 25.52141797 67.87194285 27.39642754 67.84692383 29.27124023 C67.81279585 32.10047386 67.82624157 34.92654398 67.84570312 37.75585938 C67.83220585 55.15001456 64.32100285 69.39864603 52.21875 82.5625 C39.17348166 94.98656509 25.39134224 98.02292548 8.05859375 97.78125 C0.96531477 97.50777418 -4.50335969 95.91605746 -10.75 92.4375 C-11.55050781 92.00308594 -12.35101563 91.56867188 -13.17578125 91.12109375 C-25.8645418 83.42894357 -35.44281966 71.33209152 -39.16333008 56.94116211 C-40.32906622 49.97924812 -40.19093975 42.94448481 -40.14111328 35.90234375 C-40.12495064 33.17918441 -40.14106899 30.45749088 -40.16015625 27.734375 C-40.15817502 25.98437176 -40.15433385 24.23436943 -40.1484375 22.484375 C-40.15451019 21.68006042 -40.16058289 20.87574585 -40.1668396 20.04705811 C-40.07136262 12.32531961 -37.62344858 6.76103139 -32.4296875 1.01171875 C-23.11958957 -7.71379163 -9.98940828 -7.66578505 0 0 Z " fill="#FEFDFF" transform="translate(98.75,68.5625)"/>
</svg>
