<?xml version="1.0" encoding="UTF-8" standalone="no"?>
<svg
   version="1.1"
   width="1000"
   height="1000"
   id="svg2"
   sodipodi:docname="favicon.svg"
   inkscape:version="1.4 (86a8ad7, 2024-10-11)"
   xmlns:inkscape="http://www.inkscape.org/namespaces/inkscape"
   xmlns:sodipodi="http://sodipodi.sourceforge.net/DTD/sodipodi-0.dtd"
   xmlns="http://www.w3.org/2000/svg"
   xmlns:svg="http://www.w3.org/2000/svg">
  <sodipodi:namedview
     id="namedview2"
     pagecolor="#505050"
     bordercolor="#ffffff"
     borderopacity="1"
     inkscape:showpageshadow="0"
     inkscape:pageopacity="0"
     inkscape:pagecheckerboard="1"
     inkscape:deskcolor="#505050"
     inkscape:zoom="0.57063517"
     inkscape:cx="493.30994"
     inkscape:cy="505.57697"
     inkscape:window-width="1920"
     inkscape:window-height="1009"
     inkscape:window-x="-8"
     inkscape:window-y="-8"
     inkscape:window-maximized="1"
     inkscape:current-layer="g2" />
  <g
     clip-path="url(#SvgjsClipPath1080)"
     id="g2">
    <rect
       width="1000"
       height="1000"
       fill="#ffffff"
       id="rect1" />
    <g
       id="g3"
       transform="matrix(0.82577385,0,0,0.82577385,-80.436716,-190.02148)">
      <path
         d="m 625.66848,696.89705 c -10.4,2.93334 -18.53333,13.33334 -18.66667,23.6 0,11.2 9.86667,22.53334 20.53334,23.73334 12.39999,1.46666 20.93333,-2.8 26.13333,-13.06667 9.33333,-18.13333 -8.4,-39.86667 -28,-34.26667 z"
         id="path1"
         style="fill:#2181d3;fill-opacity:1;fill-rule:nonzero;stroke-width:0.133333" />
      <path
         d="m 677.13514,768.63039 c -8.4,2.53333 -15.6,14.26666 -13.33333,21.73333 0.4,1.6 16.66667,41.33333 36.13333,88.26666 22.26667,53.73333 36.53334,86.66667 38.66667,88.93333 5.73333,6 16.13333,7.06667 23.86667,2.26667 3.6,-2.13333 8.39999,-10.66667 29.46666,-52 l 25.06667,-49.33333 0.8,27.06667 c 0.66666,21.99999 1.33333,28.66666 3.6,35.33333 6.93333,21.46666 23.46666,36.8 46,42.66666 23.33333,6 58.26666,-4.93333 76.53333,-23.86666 l 4.4,-4.53334 7.86666,7.46667 c 8.53334,8.13333 22.8,15.86667 34.8,18.8 5.46667,1.46667 19.3333,1.86667 54,1.86667 52.8,0 58.2667,-0.8 72.4,-10 45.6,-29.6 36.4,-97.33333 -15.4667,-113.33333 -7.3333,-2.26667 -12.4,-2.66667 -34.4,-2.66667 -29.2,0 -33.3333,-0.93333 -37.8666,-8.26667 -5.7334,-9.46666 -2,-22.26666 8,-27.46666 5.7333,-2.8 7.0666,-2.93334 44.6666,-2.93334 36,0 38.9334,-0.13333 42.9334,-2.66666 6,-3.6 8.8,-8.53334 8.8,-15.33334 0,-7.2 -3.7334,-13.6 -9.7334,-16.8 -4.2666,-2.26666 -8.1333,-2.53333 -45.4666,-2.53333 -46,0 -51.3334,0.8 -64.6667,9.86667 -16.26666,11.06666 -24.93333,28 -24.8,48.66666 0.13334,17.73334 5.33334,29.46667 18.2667,41.2 12.4,11.46667 17.3333,12.66667 53.4666,13.46667 l 30.8,0.8 5.4667,3.73333 c 13.8667,9.06667 15.3333,29.6 2.9333,40.13333 -7.2,6 -10.9333,6.4 -58.6666,5.86667 l -44.6667,-0.4 -7.2,-4 c -7.2,-4 -13.06666,-10.53333 -17.2,-19.33333 -1.86666,-4 -2.26666,-12.93333 -2.93333,-68.4 l -0.66667,-63.86667 -4.93333,-4.4 c -6.4,-5.99999 -12.4,-7.06666 -20.13333,-3.6 -11.33334,5.06667 -10.8,2.4 -11.6,68.93334 l -0.66667,58.66666 -4.26667,8.93333 c -7.6,16.13334 -21.73333,26.66667 -38.79999,29.06667 -14.26667,1.86667 -24.66667,-2.93333 -29.73334,-14 -2.26666,-4.93333 -2.53333,-10 -2.53333,-72.4 0,-58.53333 -0.26667,-67.73333 -2.13333,-71.6 -5.2,-11.19999 -20.4,-13.99999 -29.6,-5.46666 -1.73334,1.46666 -18.13334,32.26666 -36.4,68.4 -18.4,36.13333 -33.73333,65.73333 -34.26667,65.73333 -0.53333,0 -12.93333,-28.93333 -27.6,-64.4 -17.2,-41.6 -28,-65.73333 -30.4,-68.53333 -2.13333,-2.4 -6,-4.93334 -8.66666,-5.73333 -5.6,-1.46667 -4.93334,-1.46667 -10.13334,0 z"
         id="path2"
         style="stroke-width:0.133333" />
      <path
         d="m 269.66849,772.89705 c -11.06667,5.73333 -10.66667,3.2 -10.66667,79.06667 0,72.26666 0.13333,74.53333 7.46667,88.93333 4.13333,8.26666 15.2,20.13333 22.66666,24.53333 10.4,6.13333 20.4,8.8 33.2,8.8 18,0.13333 32.4,-4.13333 47.06667,-13.46667 l 8,-5.2 4.13333,5.2 c 12.26667,15.06667 34.93333,18 56.8,7.2 14.26667,-6.93333 25.2,-18.8 31.6,-34.13333 2.66667,-6.66667 2.93333,-9.86667 3.73333,-46.53333 0.8,-36.66667 1.06667,-39.86667 3.86667,-46.93333 4.13333,-10.66667 14.13333,-21.2 25.2,-26.66667 7.86666,-3.86667 10.13333,-4.4 19.73333,-4.4 9.6,0 11.33333,0.4 16.26667,3.86667 3.2,2.13333 6.66666,6.13333 8.26666,9.33333 2.53334,5.33333 2.66667,8.13333 2.66667,50.93333 0,35.86667 0.4,46.93333 2,52.93333 7.33333,28.13334 31.46667,47.6 59.33333,47.86667 12.93334,0.13333 21.86667,-3.46667 29.73333,-12.26667 10.4,-11.6 10.26667,-10 10.26667,-97.86666 0,-71.06667 -0.13333,-77.86667 -2.4,-82.13333 -7.2,-14.26667 -27.06666,-14.13333 -33.6,0.4 -2.53333,5.33333 -2.66666,9.46666 -2.66666,79.86666 0,82.53333 0.8,76.4 -8.93334,72.4 -6.4,-2.66667 -9.46666,-5.46667 -12.4,-11.33333 -2.13333,-4.26667 -2.53333,-9.73334 -2.93333,-52.66667 -0.53333,-45.86666 -0.66667,-48.4 -3.6,-56.53333 -6.93333,-19.6 -20.4,-33.33333 -40,-40.53333 -11.73333,-4.26667 -32.13333,-3.86667 -46.13333,0.93333 -5.86667,2 -13.73333,5.46667 -17.46667,7.6 l -6.93333,3.86667 -1.6,-4.13334 c -2.26667,-5.46666 -9.46667,-10.66666 -15.6,-11.33333 -6.4,-0.8 -13.33333,2.66667 -17.33333,8.66667 l -3.06667,4.53333 v 64.8 c 0,40.4 -0.53333,66.66666 -1.33333,69.73333 -1.86667,6.66667 -7.33334,12.93333 -14,15.86667 -10.8,4.93333 -9.86667,11.86666 -10.26667,-74 -0.4,-75.06667 -0.4,-76.66667 -3.2,-80.26667 -9.2,-12.53333 -22.53333,-12.53333 -31.73333,0 -2.66667,3.46667 -2.8,5.73334 -3.46667,61.86667 -0.66667,52.93333 -0.93333,58.8 -3.2,63.6 -6.66666,14.53333 -17.6,24.4 -31.6,28.8 -20.26666,6.26666 -35.86666,-0.66667 -39.73333,-17.46667 -0.93333,-3.73333 -1.46667,-30.93333 -1.46667,-70.26666 v -64.13334 l -3.6,-4.4 c -3.6,-4.26666 -10.26666,-7.86666 -14.8,-7.86666 -1.33333,0 -5.06666,1.33333 -8.26666,2.93333 z"
         id="path3"
         style="stroke-width:0.133333" />
    </g>
  </g>
  <defs
     id="defs2">
    <clipPath
       id="SvgjsClipPath1080">
      <rect
         width="1000"
         height="1000"
         x="0"
         y="0"
         rx="350"
         ry="350"
         id="rect2" />
    </clipPath>
  </defs>
</svg>
