<?xml version="1.0" encoding="UTF-8"?>
<svg version="1.1" xmlns="http://www.w3.org/2000/svg" width="225" height="225">
<path d="M0 0 C0.6628355 -0.00297112 1.325671 -0.00594224 2.00859243 -0.0090034 C4.22231938 -0.01765196 6.43599201 -0.01919539 8.6497345 -0.02069092 C10.2401389 -0.02532187 11.8305422 -0.0303469 13.42094421 -0.03573608 C17.73729721 -0.0488366 22.05363466 -0.05530061 26.37000442 -0.05974674 C29.06953053 -0.06268164 31.76905244 -0.06678727 34.46857643 -0.07125092 C42.92292199 -0.08492051 51.37725788 -0.09458944 59.83161372 -0.09845281 C69.57554202 -0.10293047 79.31932984 -0.12046709 89.06321543 -0.1494534 C96.6048143 -0.17110582 104.14637375 -0.18115901 111.68800336 -0.18249393 C116.18755679 -0.18353953 120.68697806 -0.18939494 125.18649864 -0.20731354 C129.42269005 -0.22385559 133.65865082 -0.22592013 137.89486313 -0.21717453 C139.44356595 -0.21640739 140.99228149 -0.22070393 142.54095268 -0.23063278 C155.2689389 -0.30740261 165.92711746 1.22513123 176.27790833 9.14044189 C184.0558556 17.05191616 187.39096371 26.95805348 187.41835022 37.86253357 C187.42132134 38.52536907 187.42429246 39.18820457 187.42735362 39.871126 C187.43600218 42.08485295 187.43754561 44.29852558 187.43904114 46.51226807 C187.44367209 48.10267247 187.44869712 49.69307577 187.4540863 51.28347778 C187.46718682 55.59983077 187.47365083 59.91616823 187.47809696 64.23253798 C187.48103186 66.9320641 187.48513749 69.63158601 187.48960114 72.33111 C187.50327073 80.78545556 187.51293966 89.23979145 187.51680303 97.69414729 C187.52128069 107.43807559 187.53881731 117.18186341 187.56780362 126.925749 C187.58945604 134.46734787 187.59950923 142.00890732 187.60084414 149.55053693 C187.60188975 154.05009036 187.60774515 158.54951163 187.62566376 163.04903221 C187.64220581 167.28522362 187.64427035 171.52118439 187.63552475 175.7573967 C187.63475761 177.30609952 187.63905415 178.85481506 187.648983 180.40348625 C187.72575283 193.13147247 186.19321899 203.78965103 178.27790833 214.14044189 C170.36643406 221.91838917 160.46029674 225.25349728 149.55581665 225.28088379 C148.89298115 225.28385491 148.23014565 225.28682603 147.54722422 225.28988719 C145.33349727 225.29853575 143.11982464 225.30007917 140.90608215 225.30157471 C139.31567775 225.30620565 137.72527445 225.31123069 136.13487244 225.31661987 C131.81851945 225.32972039 127.50218199 225.3361844 123.18581223 225.34063053 C120.48628612 225.34356543 117.78676421 225.34767106 115.08724022 225.3521347 C106.63289466 225.36580429 98.17855877 225.37547323 89.72420293 225.3793366 C79.98027463 225.38381426 70.23648681 225.40135087 60.49260122 225.43033719 C52.95100235 225.4519896 45.4094429 225.4620428 37.86781329 225.46337771 C33.36825986 225.46442332 28.86883859 225.47027872 24.36931801 225.48819733 C20.1331266 225.50473938 15.89716583 225.50680392 11.66095352 225.49805832 C10.1122507 225.49729118 8.56353516 225.50158772 7.01486397 225.51151657 C-5.71312225 225.5882864 -16.37130081 224.05575256 -26.72209167 216.14044189 C-34.50003895 208.22896763 -37.83514706 198.3228303 -37.86253357 187.41835022 C-37.86550469 186.75551472 -37.86847581 186.09267922 -37.87153697 185.40975779 C-37.88018553 183.19603084 -37.88172895 180.98235821 -37.88322449 178.76861572 C-37.88785543 177.17821132 -37.89288047 175.58780802 -37.89826965 173.99740601 C-37.91137017 169.68105301 -37.91783418 165.36471556 -37.92228031 161.0483458 C-37.92521521 158.34881969 -37.92932084 155.64929778 -37.93378448 152.94977379 C-37.94745408 144.49542823 -37.95712301 136.04109234 -37.96098638 127.5867365 C-37.96546404 117.8428082 -37.98300066 108.09902038 -38.01198697 98.35513479 C-38.03363938 90.81353591 -38.04369258 83.27197647 -38.04502749 75.73034686 C-38.0460731 71.23079343 -38.0519285 66.73137216 -38.06984711 62.23185158 C-38.08638916 57.99566017 -38.0884537 53.7596994 -38.0797081 49.52348709 C-38.07894096 47.97478427 -38.0832375 46.42606872 -38.09316635 44.87739754 C-38.16993618 32.14941132 -36.63740234 21.49123276 -28.72209167 11.14044189 C-20.81061741 3.36249462 -10.90448009 0.02738651 0 0 Z " fill="#7846FF" transform="translate(37.72209167480469,-0.14044189453125)"/>
<path d="M0 0 C7.48656308 7.35513825 8.8959178 15.58056882 9.04492188 25.69140625 C9.05130804 27.14843529 9.0571611 28.60546675 9.0625 30.0625 C9.08568952 31.55862949 9.11106397 33.05472677 9.13867188 34.55078125 C9.2009521 38.17966317 9.23373747 41.80808564 9.25 45.4375 C12.22 45.4375 15.19 45.4375 18.25 45.4375 C18.25410889 44.52049316 18.25821777 43.60348633 18.26245117 42.65869141 C18.28964889 39.2100206 18.33895695 35.76306086 18.40258789 32.31494141 C18.42558344 30.83132652 18.44011973 29.34755266 18.44555664 27.86376953 C18.4888857 17.97807752 19.00382048 9.24943663 25.95922852 1.54394531 C30.95636886 -3.26828486 36.79539158 -5.62842546 43.6875 -6 C50.02339923 -5.75925771 55.1461543 -3.2838283 60 0.6875 C65.48511861 7.39153386 68.01777054 12.18652862 67.87890625 20.94921875 C67.88131821 21.8393013 67.88373016 22.72938385 67.88621521 23.6464386 C67.88524073 25.52141797 67.87194285 27.39642754 67.84692383 29.27124023 C67.81279585 32.10047386 67.82624157 34.92654398 67.84570312 37.75585938 C67.83220585 55.15001456 64.32100285 69.39864603 52.21875 82.5625 C39.17348166 94.98656509 25.39134224 98.02292548 8.05859375 97.78125 C0.96531477 97.50777418 -4.50335969 95.91605746 -10.75 92.4375 C-11.55050781 92.00308594 -12.35101563 91.56867188 -13.17578125 91.12109375 C-25.8645418 83.42894357 -35.44281966 71.33209152 -39.16333008 56.94116211 C-40.32906622 49.97924812 -40.19093975 42.94448481 -40.14111328 35.90234375 C-40.12495064 33.17918441 -40.14106899 30.45749088 -40.16015625 27.734375 C-40.15817502 25.98437176 -40.15433385 24.23436943 -40.1484375 22.484375 C-40.15451019 21.68006042 -40.16058289 20.87574585 -40.1668396 20.04705811 C-40.07136262 12.32531961 -37.62344858 6.76103139 -32.4296875 1.01171875 C-23.11958957 -7.71379163 -9.98940828 -7.66578505 0 0 Z " fill="#FEFDFF" transform="translate(98.75,68.5625)"/>
</svg>
