<?xml version="1.0" encoding="UTF-8" standalone="no"?>
<svg
   version="1.0"
   width="180pt"
   height="180pt"
   viewBox="0 0 180 180"
   preserveAspectRatio="xMidYMid"
   id="svg1"
   sodipodi:docname="line-simple.svg"
   inkscape:version="1.4 (86a8ad7, 2024-10-11)"
   xmlns:inkscape="http://www.inkscape.org/namespaces/inkscape"
   xmlns:sodipodi="http://sodipodi.sourceforge.net/DTD/sodipodi-0.dtd"
   xmlns="http://www.w3.org/2000/svg"
   xmlns:svg="http://www.w3.org/2000/svg">
  <defs
     id="defs1" />
  <sodipodi:namedview
     id="namedview1"
     pagecolor="#505050"
     bordercolor="#ffffff"
     borderopacity="1"
     inkscape:showpageshadow="0"
     inkscape:pageopacity="0"
     inkscape:pagecheckerboard="1"
     inkscape:deskcolor="#505050"
     inkscape:document-units="pt"
     inkscape:zoom="2.3642578"
     inkscape:cx="102.99215"
     inkscape:cy="170.2437"
     inkscape:window-width="1920"
     inkscape:window-height="1009"
     inkscape:window-x="-8"
     inkscape:window-y="-8"
     inkscape:window-maximized="1"
     inkscape:current-layer="svg1" />
  <g
     transform="matrix(0.03239216,0,0,-0.03239216,7.0958854,172.90958)"
     fill="#000000"
     stroke="none"
     id="g1"
     style="fill:#ffffff;fill-opacity:1">
    <path
       d="M 2320,5043 C 1909,5004 1605,4922 1275,4760 997,4624 821,4501 615,4295 265,3947 63,3547 11,3095 -28,2763 47,2378 215,2045 432,1617 794,1267 1255,1039 c 227,-111 440,-179 785,-250 85,-17 167,-38 183,-45 34,-18 35,-41 5,-161 -29,-116 -30,-274 -4,-352 48,-140 181,-193 352,-140 200,62 635,340 1249,800 664,496 994,876 1169,1343 216,575 147,1202 -187,1706 -174,264 -449,526 -737,702 -341,209 -760,347 -1193,393 -130,13 -453,18 -557,8 z M 4055,3526 c 38,-16 75,-68 75,-104 0,-37 -28,-86 -59,-105 -25,-15 -61,-17 -275,-17 h -246 v -110 -110 h 178 c 97,0 195,-5 217,-10 123,-28 128,-196 7,-230 -20,-5 -119,-10 -219,-10 h -183 v -110 -109 l 264,-3 264,-3 26,-24 c 15,-14 31,-42 37,-62 10,-31 9,-43 -7,-76 -36,-72 -44,-74 -421,-71 l -333,3 -32,33 -33,32 -3,503 c -2,489 -2,503 18,535 36,59 53,61 388,62 241,0 310,-3 337,-14 z m -2858,-21 c 12,-3 34,-20 48,-36 l 25,-31 v -424 -424 h 169 c 93,0 181,-4 196,-10 14,-5 37,-22 50,-36 49,-53 25,-155 -43,-183 -20,-8 -104,-11 -284,-9 -239,3 -257,4 -278,23 -49,44 -50,53 -50,548 0,256 3,479 6,496 8,37 54,88 87,94 23,4 37,3 74,-8 z m 788,-1 c 72,-34 70,-17 73,-524 2,-250 0,-479 -3,-507 -11,-93 -92,-144 -169,-108 -74,35 -71,12 -71,570 0,479 1,501 20,529 19,29 65,55 98,56 11,0 34,-7 52,-16 z m 1115,-12 c 47,-35 49,-55 49,-560 1,-509 0,-523 -51,-556 -13,-9 -38,-18 -55,-22 -65,-13 -85,7 -317,326 -119,165 -222,302 -227,305 -5,4 -9,-101 -9,-270 0,-241 -2,-281 -17,-305 -48,-83 -178,-70 -210,21 -18,53 -18,938 1,983 29,69 113,98 172,60 14,-10 125,-155 247,-323 l 222,-306 5,300 c 5,327 6,330 65,360 36,19 89,13 125,-13 z"
       id="path1"
       style="fill:#ffffff;fill-opacity:1" />
  </g>
</svg>
