<?xml version="1.0" encoding="UTF-8" standalone="no"?>
<svg
   version="1.0"
   width="1000.000000pt"
   height="1000.000000pt"
   viewBox="0 0 1000.000000 1000.000000"
   preserveAspectRatio="xMidYMid meet"
   id="svg3"
   sodipodi:docname="logo.svg"
   inkscape:version="1.4 (86a8ad7, 2024-10-11)"
   xmlns:inkscape="http://www.inkscape.org/namespaces/inkscape"
   xmlns:sodipodi="http://sodipodi.sourceforge.net/DTD/sodipodi-0.dtd"
   xmlns="http://www.w3.org/2000/svg"
   xmlns:svg="http://www.w3.org/2000/svg">
  <defs
     id="defs3" />
  <sodipodi:namedview
     id="namedview3"
     pagecolor="#505050"
     bordercolor="#ffffff"
     borderopacity="1"
     inkscape:showpageshadow="0"
     inkscape:pageopacity="0"
     inkscape:pagecheckerboard="1"
     inkscape:deskcolor="#505050"
     inkscape:document-units="pt"
     inkscape:zoom="0.60525"
     inkscape:cx="666.66667"
     inkscape:cy="666.66667"
     inkscape:window-width="1920"
     inkscape:window-height="1009"
     inkscape:window-x="1912"
     inkscape:window-y="-8"
     inkscape:window-maximized="1"
     inkscape:current-layer="g3" />
  <g
     transform="translate(0.000000,1000.000000) scale(0.100000,-0.100000)"
     fill="#000000"
     stroke="none"
     id="g3">
    <path
       d="M4420 6038 c-78 -22 -139 -100 -140 -177 0 -84 74 -169 154 -178 93 -11 157 21 196 98 70 136 -63 299 -210 257z"
       id="path1"
       style="fill:#2181d3;fill-opacity:1;fill-rule:nonzero" />
    <path
       d="M4806 5500 c-63 -19 -117 -107 -100 -163 3 -12 125 -310 271 -662 167 -403 274 -650 290 -667 43 -45 121 -53 179 -17 27 16 63 80 221 390 l188 370 6 -203 c5 -165 10 -215 27 -265 52 -161 176 -276 345 -320 175 -45 437 37 574 179 l33 34 59 -56 c64 -61 171 -119 261 -141 41 -11 145 -14 405 -14 396 0 437 6 543 75 342 222 273 730 -116 850 -55 17 -93 20 -258 20 -219 0 -250 7 -284 62 -43 71 -15 167 60 206 43 21 53 22 335 22 270 0 292 1 322 20 45 27 66 64 66 115 0 54 -28 102 -73 126 -32 17 -61 19 -341 19 -345 0 -385 -6 -485 -74 -122 -83 -187 -210 -186 -365 1 -133 40 -221 137 -309 93 -86 130 -95 401 -101 l231 -6 41 -28 c104 -68 115 -222 22 -301 -54 -45 -82 -48 -440 -44 l-335 3 -54 30 c-54 30 -98 79 -129 145 -14 30 -17 97 -22 513 l-5 479 -37 33 c-48 45 -93 53 -151 27 -85 -38 -81 -18 -87 -517 l-5 -440 -32 -67 c-57 -121 -163 -200 -291 -218 -107 -14 -185 22 -223 105 -17 37 -19 75 -19 543 0 439 -2 508 -16 537 -39 84 -153 105 -222 41 -13 -11 -136 -242 -273 -513 -138 -271 -253 -493 -257 -493 -4 0 -97 217 -207 483 -129 312 -210 493 -228 514 -16 18 -45 37 -65 43 -42 11 -37 11 -76 0z"
       id="path2" />
    <path
       d="M1750 5468 c-83 -43 -80 -24 -80 -593 0 -542 1 -559 56 -667 31 -62 114 -151 170 -184 78 -46 153 -66 249 -66 135 -1 243 31 353 101 l60 39 31 -39 c92 -113 262 -135 426 -54 107 52 189 141 237 256 20 50 22 74 28 349 6 275 8 299 29 352 31 80 106 159 189 200 59 29 76 33 148 33 72 0 85 -3 122 -29 24 -16 50 -46 62 -70 19 -40 20 -61 20 -382 0 -269 3 -352 15 -397 55 -211 236 -357 445 -359 97 -1 164 26 223 92 78 87 77 75 77 734 0 533 -1 584 -18 616 -54 107 -203 106 -252 -3 -19 -40 -20 -71 -20 -599 0 -619 6 -573 -67 -543 -48 20 -71 41 -93 85 -16 32 -19 73 -22 395 -4 344 -5 363 -27 424 -52 147 -153 250 -300 304 -88 32 -241 29 -346 -7 -44 -15 -103 -41 -131 -57 l-52 -29 -12 31 c-17 41 -71 80 -117 85 -48 6 -100 -20 -130 -65 l-23 -34 0 -486 c0 -303 -4 -500 -10 -523 -14 -50 -55 -97 -105 -119 -81 -37 -74 -89 -77 555 -3 563 -3 575 -24 602 -69 94 -169 94 -238 0 -20 -26 -21 -43 -26 -464 -5 -397 -7 -441 -24 -477 -50 -109 -132 -183 -237 -216 -152 -47 -269 5 -298 131 -7 28 -11 232 -11 527 l0 481 -27 33 c-27 32 -77 59 -111 59 -10 0 -38 -10 -62 -22z"
       id="path3" />
  </g>
</svg>
